<svg 
 xmlns="http://www.w3.org/2000/svg"
 xmlns:xlink="http://www.w3.org/1999/xlink"
 width="0.208in" height="0.181in">
<path fill-rule="evenodd"  fill="rgb(73, 135, 254)"
 d="M14.876,2.122 C14.489,2.731 13.998,3.267 13.425,3.706 C13.433,3.831 13.433,3.966 13.433,4.102 C13.433,8.124 10.508,12.768 5.158,12.768 C3.569,12.767 2.016,12.291 0.700,11.401 C0.930,11.429 1.161,11.444 1.393,11.446 C2.712,11.445 3.990,10.984 5.005,10.141 C3.738,10.095 2.644,9.242 2.288,8.026 C2.468,8.062 2.652,8.080 2.835,8.080 C3.095,8.081 3.353,8.044 3.602,7.972 C2.217,7.650 1.245,6.405 1.269,4.984 C1.269,4.966 1.269,4.957 1.269,4.939 C1.668,5.176 2.121,5.310 2.586,5.325 C1.768,4.740 1.286,3.794 1.292,2.788 C1.290,2.252 1.426,1.726 1.685,1.258 C3.126,3.139 5.314,4.302 7.680,4.444 C7.630,4.213 7.605,3.977 7.605,3.741 C7.588,2.953 7.884,2.188 8.430,1.618 C8.975,1.047 9.725,0.717 10.514,0.700 C11.327,0.702 12.100,1.052 12.636,1.662 C13.291,1.522 13.915,1.269 14.483,0.915 C14.276,1.616 13.821,2.217 13.204,2.607 C13.784,2.534 14.347,2.370 14.876,2.122 L14.876,2.122 Z"/>
</svg>