<svg 
 xmlns="http://www.w3.org/2000/svg"
 xmlns:xlink="http://www.w3.org/1999/xlink"
 width="0.25in" height="0.25in">
<path fill-rule="evenodd"  fill="rgb(89, 96, 103)"
 d="M12.628,17.100 L5.370,17.100 C2.902,17.096 0.902,15.095 0.900,12.627 L0.900,5.373 C0.902,2.904 2.902,0.903 5.370,0.900 L12.628,0.900 C15.097,0.903 17.097,2.904 17.100,5.373 L17.100,12.627 C17.097,15.095 15.097,17.096 12.628,17.100 ZM15.662,5.373 C15.661,3.698 14.303,2.341 12.628,2.340 L5.370,2.340 C3.696,2.341 2.339,3.698 2.337,5.373 L2.337,12.627 C2.339,14.301 3.696,15.658 5.370,15.660 L12.628,15.660 C14.303,15.659 15.661,14.301 15.662,12.627 L15.662,5.373 ZM12.607,5.409 C12.409,5.211 12.297,4.942 12.297,4.662 C12.297,4.381 12.409,4.113 12.607,3.915 C12.804,3.718 13.072,3.608 13.350,3.609 C13.630,3.607 13.899,3.717 14.097,3.915 C14.509,4.328 14.509,4.995 14.097,5.409 C13.684,5.816 13.020,5.816 12.607,5.409 ZM13.351,3.608 C13.351,3.608 13.350,3.609 13.350,3.609 C13.349,3.609 13.349,3.608 13.349,3.608 L13.351,3.608 ZM13.177,9.000 C13.177,10.689 12.159,12.212 10.598,12.858 C9.038,13.504 7.241,13.147 6.047,11.952 C4.853,10.757 4.496,8.961 5.143,7.400 C5.790,5.840 7.312,4.824 9.001,4.824 C11.306,4.825 13.175,6.694 13.177,9.000 ZM9.004,6.264 C7.493,6.264 6.268,7.488 6.267,8.999 C6.267,10.509 7.491,11.734 9.001,11.736 C9.001,11.736 9.000,11.736 9.000,11.736 L9.002,11.736 C9.002,11.736 9.002,11.736 9.001,11.736 C9.727,11.736 10.423,11.448 10.936,10.935 C11.450,10.422 11.739,9.726 11.739,9.000 C11.739,7.489 10.515,6.264 9.004,6.264 ZM9.002,4.824 C9.002,4.824 9.001,4.824 9.001,4.824 C9.000,4.824 9.000,4.824 9.000,4.824 L9.002,4.824 Z"/>
</svg>