<svg 
 xmlns="http://www.w3.org/2000/svg"
 xmlns:xlink="http://www.w3.org/1999/xlink"
 width="0.264in" height="0.208in">
<path fill-rule="evenodd"  fill="rgb(89, 96, 103)"
 d="M17.322,7.801 L17.322,9.087 L16.192,9.087 L16.192,7.801 L14.874,7.801 L14.874,6.693 L16.192,6.693 L16.192,5.407 L17.322,5.407 L17.322,6.693 L18.640,6.693 L18.640,7.801 L17.322,7.801 ZM7.550,14.200 C3.822,14.200 0.800,11.178 0.800,7.449 C0.800,3.722 3.822,0.700 7.550,0.700 C9.348,0.695 11.079,1.385 12.382,2.626 L10.822,4.282 C9.948,3.425 8.773,2.947 7.550,2.950 C5.177,2.939 3.187,4.739 2.960,7.101 C2.733,9.463 4.344,11.608 6.676,12.050 C9.008,12.491 11.291,11.082 11.943,8.800 L8.011,8.800 L8.011,6.702 L14.455,6.702 L14.455,8.800 C13.695,11.990 10.829,14.231 7.550,14.200 Z"/>
</svg>