<svg 
 xmlns="http://www.w3.org/2000/svg"
 xmlns:xlink="http://www.w3.org/1999/xlink"
 width="0.264in" height="0.153in">
<path fill-rule="evenodd"  fill="rgb(89, 96, 103)"
 d="M18.967,9.699 C18.992,9.799 18.992,9.904 18.967,10.005 C18.921,10.118 18.833,10.209 18.720,10.257 C18.538,10.338 18.339,10.375 18.140,10.365 L15.620,10.410 C15.435,10.434 15.246,10.416 15.069,10.356 C14.891,10.311 14.719,10.245 14.557,10.158 L14.360,10.050 C14.111,9.882 13.880,9.689 13.671,9.474 C13.409,9.213 13.184,8.979 12.997,8.772 C12.819,8.574 12.618,8.398 12.397,8.250 C12.243,8.121 12.039,8.069 11.842,8.106 C11.822,8.115 11.796,8.124 11.762,8.142 C11.700,8.178 11.644,8.224 11.595,8.277 C11.511,8.353 11.440,8.440 11.383,8.538 C11.306,8.685 11.250,8.843 11.216,9.006 C11.165,9.236 11.144,9.472 11.152,9.708 C11.153,9.793 11.141,9.878 11.118,9.960 C11.102,10.017 11.077,10.072 11.044,10.122 L11.005,10.167 C10.860,10.293 10.675,10.363 10.483,10.365 L9.352,10.365 C8.868,10.392 8.382,10.343 7.912,10.221 C7.464,10.110 7.031,9.950 6.618,9.744 C6.270,9.561 5.932,9.360 5.605,9.141 C5.360,8.988 5.128,8.817 4.911,8.628 L4.665,8.412 C4.600,8.349 4.509,8.250 4.395,8.133 C4.281,8.016 4.047,7.737 3.692,7.314 C3.337,6.891 2.990,6.423 2.649,5.946 C2.308,5.469 1.905,4.839 1.443,4.047 C0.981,3.255 0.553,2.436 0.160,1.581 C0.123,1.505 0.103,1.422 0.100,1.338 C0.098,1.288 0.108,1.239 0.130,1.194 L0.169,1.140 C0.323,1.005 0.527,0.943 0.730,0.969 L3.430,0.951 C3.508,0.963 3.584,0.984 3.656,1.014 C3.710,1.034 3.763,1.058 3.814,1.086 L3.863,1.113 C3.969,1.183 4.051,1.283 4.099,1.401 C4.228,1.707 4.379,2.013 4.549,2.337 C4.719,2.661 4.854,2.904 4.952,3.075 L5.110,3.336 C5.297,3.696 5.480,4.011 5.660,4.281 C5.802,4.498 5.962,4.702 6.137,4.893 C6.257,5.028 6.395,5.146 6.546,5.244 C6.645,5.315 6.760,5.358 6.881,5.370 C6.973,5.369 7.064,5.354 7.151,5.325 C7.170,5.313 7.187,5.298 7.200,5.280 C7.219,5.253 7.259,5.190 7.318,5.082 C7.384,4.949 7.429,4.806 7.450,4.659 C7.478,4.479 7.508,4.236 7.540,3.930 C7.574,3.552 7.574,3.173 7.540,2.796 C7.530,2.575 7.500,2.355 7.450,2.139 C7.424,1.995 7.378,1.856 7.313,1.725 L7.253,1.608 C7.033,1.379 6.735,1.241 6.417,1.221 C6.332,1.212 6.348,1.140 6.467,1.005 C6.573,0.892 6.700,0.800 6.840,0.735 C7.607,0.534 8.402,0.461 9.192,0.519 C9.637,0.518 10.082,0.557 10.520,0.636 C10.637,0.659 10.748,0.701 10.850,0.762 C10.940,0.809 11.011,0.885 11.051,0.978 C11.098,1.069 11.132,1.166 11.155,1.266 C11.181,1.399 11.192,1.535 11.189,1.671 C11.189,1.851 11.185,2.022 11.179,2.175 C11.173,2.328 11.165,2.553 11.155,2.814 C11.145,3.075 11.140,3.327 11.140,3.552 C11.140,3.624 11.136,3.759 11.131,3.939 C11.125,4.119 11.122,4.272 11.125,4.371 C11.129,4.470 11.140,4.596 11.159,4.731 C11.174,4.857 11.212,4.979 11.273,5.091 C11.328,5.180 11.404,5.254 11.494,5.307 C11.547,5.316 11.602,5.334 11.662,5.343 C11.757,5.348 11.850,5.312 11.917,5.244 C12.050,5.148 12.175,5.043 12.292,4.929 C12.481,4.744 12.652,4.543 12.803,4.326 C13.009,4.056 13.232,3.732 13.472,3.354 C13.878,2.706 14.230,2.025 14.525,1.320 C14.551,1.265 14.584,1.213 14.623,1.167 C14.654,1.128 14.690,1.095 14.731,1.068 L14.770,1.041 L14.820,1.023 L14.947,0.996 C15.012,0.980 15.079,0.977 15.145,0.987 L17.978,0.969 C18.188,0.939 18.401,0.949 18.608,0.996 C18.721,1.014 18.827,1.063 18.913,1.140 L18.971,1.230 C19.123,1.617 18.630,2.508 17.495,3.885 C17.338,4.083 17.126,4.335 16.856,4.659 C16.521,5.020 16.224,5.415 15.971,5.838 C15.859,6.088 15.914,6.382 16.108,6.576 C16.220,6.702 16.486,6.945 16.906,7.314 L16.916,7.314 L16.926,7.323 L16.935,7.332 L16.955,7.350 C17.676,7.920 18.309,8.593 18.834,9.348 C18.858,9.385 18.879,9.424 18.898,9.465 C18.931,9.539 18.954,9.618 18.967,9.699 Z"/>
</svg>